<svg width="22" height="23" viewBox="0 0 22 23" fill="none" xmlns="http://www.w3.org/2000/svg">
<path d="M11.0003 0.666748C5.02033 0.666748 0.166992 5.52008 0.166992 11.5001C0.166992 17.4801 5.02033 22.3334 11.0003 22.3334C16.9803 22.3334 21.8337 17.4801 21.8337 11.5001C21.8337 5.52008 16.9803 0.666748 11.0003 0.666748ZM9.91699 20.0909C5.63783 19.5601 2.33366 15.9201 2.33366 11.5001C2.33366 10.8284 2.42033 10.1892 2.56116 9.56091L7.75033 14.7501V15.8334C7.75033 17.0251 8.72533 18.0001 9.91699 18.0001V20.0909ZM17.392 17.3392C17.1103 16.4617 16.3087 15.8334 15.3337 15.8334H14.2503V12.5834C14.2503 11.9876 13.7628 11.5001 13.167 11.5001H6.66699V9.33342H8.83366C9.42949 9.33342 9.91699 8.84591 9.91699 8.25008V6.08342H12.0837C13.2753 6.08342 14.2503 5.10842 14.2503 3.91675V3.47258C17.4245 4.76175 19.667 7.87091 19.667 11.5001C19.667 13.7534 18.8003 15.8009 17.392 17.3392Z" fill="#0783FF"/>
</svg>
